<mxfile host="app.diagrams.net" agent="Mozilla/5.0 (Windows NT 10.0; Win64; x64) AppleWebKit/537.36 (KHTML, like Gecko) Chrome/133.0.0.0 Safari/537.36" version="26.0.16">
  <diagram name="Page-1" id="6YWjFsSdzuthJOM6boRU">
    <mxGraphModel dx="1050" dy="522" grid="1" gridSize="10" guides="1" tooltips="1" connect="1" arrows="1" fold="1" page="1" pageScale="1" pageWidth="827" pageHeight="1169" math="0" shadow="0">
      <root>
        <mxCell id="0" />
        <mxCell id="1" parent="0" />
        <mxCell id="g2H8JcdMtzYCanS4Ir8u-6" style="edgeStyle=orthogonalEdgeStyle;rounded=0;orthogonalLoop=1;jettySize=auto;html=1;exitX=0.5;exitY=1;exitDx=0;exitDy=0;entryX=0.5;entryY=0;entryDx=0;entryDy=0;" edge="1" parent="1" source="g2H8JcdMtzYCanS4Ir8u-1" target="g2H8JcdMtzYCanS4Ir8u-2">
          <mxGeometry relative="1" as="geometry" />
        </mxCell>
        <mxCell id="g2H8JcdMtzYCanS4Ir8u-1" value="" style="ellipse;whiteSpace=wrap;html=1;aspect=fixed;fillColor=light-dark(#000000,var(--ge-dark-color, #121212));" vertex="1" parent="1">
          <mxGeometry x="404" y="30" width="20" height="20" as="geometry" />
        </mxCell>
        <mxCell id="g2H8JcdMtzYCanS4Ir8u-7" style="edgeStyle=orthogonalEdgeStyle;rounded=0;orthogonalLoop=1;jettySize=auto;html=1;exitX=0.5;exitY=1;exitDx=0;exitDy=0;entryX=0.5;entryY=0;entryDx=0;entryDy=0;" edge="1" parent="1" source="g2H8JcdMtzYCanS4Ir8u-2" target="g2H8JcdMtzYCanS4Ir8u-4">
          <mxGeometry relative="1" as="geometry" />
        </mxCell>
        <mxCell id="g2H8JcdMtzYCanS4Ir8u-2" value="написати /start в чаті бота" style="rounded=1;whiteSpace=wrap;html=1;arcSize=50;" vertex="1" parent="1">
          <mxGeometry x="354" y="80" width="120" height="50" as="geometry" />
        </mxCell>
        <mxCell id="g2H8JcdMtzYCanS4Ir8u-27" style="edgeStyle=orthogonalEdgeStyle;rounded=0;orthogonalLoop=1;jettySize=auto;html=1;exitX=0.5;exitY=1;exitDx=0;exitDy=0;entryX=0.5;entryY=0;entryDx=0;entryDy=0;" edge="1" parent="1" source="g2H8JcdMtzYCanS4Ir8u-3" target="g2H8JcdMtzYCanS4Ir8u-16">
          <mxGeometry relative="1" as="geometry" />
        </mxCell>
        <mxCell id="g2H8JcdMtzYCanS4Ir8u-3" value="Натиснути інлайн-кнопку Музика" style="rounded=1;whiteSpace=wrap;html=1;arcSize=50;" vertex="1" parent="1">
          <mxGeometry x="120" y="200" width="120" height="50" as="geometry" />
        </mxCell>
        <mxCell id="g2H8JcdMtzYCanS4Ir8u-8" style="edgeStyle=orthogonalEdgeStyle;rounded=0;orthogonalLoop=1;jettySize=auto;html=1;exitX=1;exitY=0.5;exitDx=0;exitDy=0;entryX=0.5;entryY=0;entryDx=0;entryDy=0;" edge="1" parent="1" source="g2H8JcdMtzYCanS4Ir8u-4" target="g2H8JcdMtzYCanS4Ir8u-5">
          <mxGeometry relative="1" as="geometry" />
        </mxCell>
        <mxCell id="g2H8JcdMtzYCanS4Ir8u-11" value="[Запросити плейлист]" style="edgeLabel;html=1;align=center;verticalAlign=middle;resizable=0;points=[];" vertex="1" connectable="0" parent="g2H8JcdMtzYCanS4Ir8u-8">
          <mxGeometry x="-0.2513" y="-2" relative="1" as="geometry">
            <mxPoint x="-24" y="-12" as="offset" />
          </mxGeometry>
        </mxCell>
        <mxCell id="g2H8JcdMtzYCanS4Ir8u-9" style="edgeStyle=orthogonalEdgeStyle;rounded=0;orthogonalLoop=1;jettySize=auto;html=1;exitX=0;exitY=0.5;exitDx=0;exitDy=0;entryX=0.5;entryY=0;entryDx=0;entryDy=0;" edge="1" parent="1" source="g2H8JcdMtzYCanS4Ir8u-4" target="g2H8JcdMtzYCanS4Ir8u-3">
          <mxGeometry relative="1" as="geometry" />
        </mxCell>
        <mxCell id="g2H8JcdMtzYCanS4Ir8u-10" value="[Запросити музику]" style="edgeLabel;html=1;align=center;verticalAlign=middle;resizable=0;points=[];" vertex="1" connectable="0" parent="g2H8JcdMtzYCanS4Ir8u-9">
          <mxGeometry x="0.1687" y="2" relative="1" as="geometry">
            <mxPoint x="74" y="-12" as="offset" />
          </mxGeometry>
        </mxCell>
        <mxCell id="g2H8JcdMtzYCanS4Ir8u-4" value="" style="rhombus;whiteSpace=wrap;html=1;" vertex="1" parent="1">
          <mxGeometry x="390" y="160" width="46" height="40" as="geometry" />
        </mxCell>
        <mxCell id="g2H8JcdMtzYCanS4Ir8u-28" style="edgeStyle=orthogonalEdgeStyle;rounded=0;orthogonalLoop=1;jettySize=auto;html=1;exitX=0.5;exitY=1;exitDx=0;exitDy=0;entryX=0.5;entryY=0;entryDx=0;entryDy=0;" edge="1" parent="1" source="g2H8JcdMtzYCanS4Ir8u-5" target="g2H8JcdMtzYCanS4Ir8u-17">
          <mxGeometry relative="1" as="geometry" />
        </mxCell>
        <mxCell id="g2H8JcdMtzYCanS4Ir8u-5" value="Натиснути інлайн-кнопку Плейлисти" style="rounded=1;whiteSpace=wrap;html=1;arcSize=50;" vertex="1" parent="1">
          <mxGeometry x="590" y="200" width="120" height="50" as="geometry" />
        </mxCell>
        <mxCell id="g2H8JcdMtzYCanS4Ir8u-14" value="&amp;nbsp;Бот пропонує додати музику для прослуховування" style="rounded=1;whiteSpace=wrap;html=1;arcSize=50;" vertex="1" parent="1">
          <mxGeometry x="284" y="255" width="120" height="50" as="geometry" />
        </mxCell>
        <mxCell id="g2H8JcdMtzYCanS4Ir8u-23" value="" style="edgeStyle=orthogonalEdgeStyle;rounded=0;orthogonalLoop=1;jettySize=auto;html=1;" edge="1" parent="1" source="g2H8JcdMtzYCanS4Ir8u-16" target="g2H8JcdMtzYCanS4Ir8u-14">
          <mxGeometry relative="1" as="geometry" />
        </mxCell>
        <mxCell id="g2H8JcdMtzYCanS4Ir8u-24" value="[Немає музики]" style="edgeLabel;html=1;align=center;verticalAlign=middle;resizable=0;points=[];" vertex="1" connectable="0" parent="g2H8JcdMtzYCanS4Ir8u-23">
          <mxGeometry x="-0.0933" y="-1" relative="1" as="geometry">
            <mxPoint x="2" y="-21" as="offset" />
          </mxGeometry>
        </mxCell>
        <mxCell id="g2H8JcdMtzYCanS4Ir8u-32" style="edgeStyle=orthogonalEdgeStyle;rounded=0;orthogonalLoop=1;jettySize=auto;html=1;exitX=0;exitY=0.5;exitDx=0;exitDy=0;entryX=0.5;entryY=0;entryDx=0;entryDy=0;" edge="1" parent="1" source="g2H8JcdMtzYCanS4Ir8u-16" target="g2H8JcdMtzYCanS4Ir8u-29">
          <mxGeometry relative="1" as="geometry" />
        </mxCell>
        <mxCell id="g2H8JcdMtzYCanS4Ir8u-33" value="[Музика э в базі даних]" style="edgeLabel;html=1;align=center;verticalAlign=middle;resizable=0;points=[];" vertex="1" connectable="0" parent="g2H8JcdMtzYCanS4Ir8u-32">
          <mxGeometry x="0.2567" relative="1" as="geometry">
            <mxPoint x="23" y="-20" as="offset" />
          </mxGeometry>
        </mxCell>
        <mxCell id="g2H8JcdMtzYCanS4Ir8u-16" value="" style="rhombus;whiteSpace=wrap;html=1;" vertex="1" parent="1">
          <mxGeometry x="157" y="260" width="43" height="40" as="geometry" />
        </mxCell>
        <mxCell id="g2H8JcdMtzYCanS4Ir8u-25" style="edgeStyle=orthogonalEdgeStyle;rounded=0;orthogonalLoop=1;jettySize=auto;html=1;exitX=0;exitY=0.5;exitDx=0;exitDy=0;entryX=1;entryY=0.5;entryDx=0;entryDy=0;" edge="1" parent="1" source="g2H8JcdMtzYCanS4Ir8u-17" target="g2H8JcdMtzYCanS4Ir8u-22">
          <mxGeometry relative="1" as="geometry" />
        </mxCell>
        <mxCell id="g2H8JcdMtzYCanS4Ir8u-26" value="[Немає Плейлиста]" style="edgeLabel;html=1;align=center;verticalAlign=middle;resizable=0;points=[];" vertex="1" connectable="0" parent="g2H8JcdMtzYCanS4Ir8u-25">
          <mxGeometry x="0.3672" y="-4" relative="1" as="geometry">
            <mxPoint x="20" y="-16" as="offset" />
          </mxGeometry>
        </mxCell>
        <mxCell id="g2H8JcdMtzYCanS4Ir8u-36" style="edgeStyle=orthogonalEdgeStyle;rounded=0;orthogonalLoop=1;jettySize=auto;html=1;exitX=1;exitY=0.5;exitDx=0;exitDy=0;entryX=0.5;entryY=0;entryDx=0;entryDy=0;" edge="1" parent="1" source="g2H8JcdMtzYCanS4Ir8u-17" target="g2H8JcdMtzYCanS4Ir8u-35">
          <mxGeometry relative="1" as="geometry" />
        </mxCell>
        <mxCell id="g2H8JcdMtzYCanS4Ir8u-37" value="[Плейлист створенний]" style="edgeLabel;html=1;align=center;verticalAlign=middle;resizable=0;points=[];" vertex="1" connectable="0" parent="g2H8JcdMtzYCanS4Ir8u-36">
          <mxGeometry x="-0.5032" relative="1" as="geometry">
            <mxPoint x="26" y="-20" as="offset" />
          </mxGeometry>
        </mxCell>
        <mxCell id="g2H8JcdMtzYCanS4Ir8u-17" value="" style="rhombus;whiteSpace=wrap;html=1;" vertex="1" parent="1">
          <mxGeometry x="627" y="260" width="46" height="40" as="geometry" />
        </mxCell>
        <mxCell id="g2H8JcdMtzYCanS4Ir8u-22" value="Бот пропонує додати Новий плейлист" style="rounded=1;whiteSpace=wrap;html=1;arcSize=50;" vertex="1" parent="1">
          <mxGeometry x="424" y="255" width="120" height="50" as="geometry" />
        </mxCell>
        <mxCell id="g2H8JcdMtzYCanS4Ir8u-34" style="edgeStyle=orthogonalEdgeStyle;rounded=0;orthogonalLoop=1;jettySize=auto;html=1;exitX=0.5;exitY=1;exitDx=0;exitDy=0;entryX=0.5;entryY=0;entryDx=0;entryDy=0;" edge="1" parent="1" source="g2H8JcdMtzYCanS4Ir8u-29" target="g2H8JcdMtzYCanS4Ir8u-30">
          <mxGeometry relative="1" as="geometry" />
        </mxCell>
        <mxCell id="g2H8JcdMtzYCanS4Ir8u-29" value="Вибрати Музику за допомогою інлайн-кнопок &quot;&amp;lt;&quot; та &quot;&amp;gt;&quot;&amp;nbsp;" style="rounded=1;whiteSpace=wrap;html=1;arcSize=50;" vertex="1" parent="1">
          <mxGeometry y="310" width="120" height="50" as="geometry" />
        </mxCell>
        <mxCell id="g2H8JcdMtzYCanS4Ir8u-48" style="edgeStyle=orthogonalEdgeStyle;rounded=0;orthogonalLoop=1;jettySize=auto;html=1;exitX=0.5;exitY=1;exitDx=0;exitDy=0;entryX=0.5;entryY=0;entryDx=0;entryDy=0;" edge="1" parent="1" source="g2H8JcdMtzYCanS4Ir8u-30" target="g2H8JcdMtzYCanS4Ir8u-42">
          <mxGeometry relative="1" as="geometry" />
        </mxCell>
        <mxCell id="g2H8JcdMtzYCanS4Ir8u-30" value="Натиснути інлайн-кнопку &quot;прослухати&quot;" style="rounded=1;whiteSpace=wrap;html=1;arcSize=50;" vertex="1" parent="1">
          <mxGeometry y="390" width="120" height="50" as="geometry" />
        </mxCell>
        <mxCell id="g2H8JcdMtzYCanS4Ir8u-39" style="edgeStyle=orthogonalEdgeStyle;rounded=0;orthogonalLoop=1;jettySize=auto;html=1;exitX=0.5;exitY=1;exitDx=0;exitDy=0;entryX=0.5;entryY=0;entryDx=0;entryDy=0;" edge="1" parent="1" source="g2H8JcdMtzYCanS4Ir8u-35" target="g2H8JcdMtzYCanS4Ir8u-38">
          <mxGeometry relative="1" as="geometry" />
        </mxCell>
        <mxCell id="g2H8JcdMtzYCanS4Ir8u-35" value="&lt;font style=&quot;font-size: 10px;&quot;&gt;Вибрати Плейлист за допомогою інлайн-кнопок &quot;&amp;lt;&quot; та &quot;&amp;gt;&quot;&lt;/font&gt;" style="rounded=1;whiteSpace=wrap;html=1;arcSize=50;" vertex="1" parent="1">
          <mxGeometry x="707" y="310" width="120" height="50" as="geometry" />
        </mxCell>
        <mxCell id="g2H8JcdMtzYCanS4Ir8u-47" style="edgeStyle=orthogonalEdgeStyle;rounded=0;orthogonalLoop=1;jettySize=auto;html=1;exitX=0.5;exitY=1;exitDx=0;exitDy=0;entryX=0.5;entryY=0;entryDx=0;entryDy=0;" edge="1" parent="1" source="g2H8JcdMtzYCanS4Ir8u-38" target="g2H8JcdMtzYCanS4Ir8u-44">
          <mxGeometry relative="1" as="geometry" />
        </mxCell>
        <mxCell id="g2H8JcdMtzYCanS4Ir8u-38" value="Натиснути інлайн-кнопку &quot;прослухати&quot;" style="rounded=1;whiteSpace=wrap;html=1;arcSize=50;" vertex="1" parent="1">
          <mxGeometry x="707" y="390" width="120" height="50" as="geometry" />
        </mxCell>
        <mxCell id="g2H8JcdMtzYCanS4Ir8u-42" value="" style="ellipse;whiteSpace=wrap;html=1;aspect=fixed;" vertex="1" parent="1">
          <mxGeometry x="45" y="465" width="30" height="30" as="geometry" />
        </mxCell>
        <mxCell id="g2H8JcdMtzYCanS4Ir8u-41" value="" style="ellipse;whiteSpace=wrap;html=1;aspect=fixed;fillColor=light-dark(#000000,var(--ge-dark-color, #121212));" vertex="1" parent="1">
          <mxGeometry x="50" y="470" width="20" height="20" as="geometry" />
        </mxCell>
        <mxCell id="g2H8JcdMtzYCanS4Ir8u-45" value="" style="ellipse;whiteSpace=wrap;html=1;aspect=fixed;" vertex="1" parent="1">
          <mxGeometry x="752" y="465" width="30" height="30" as="geometry" />
        </mxCell>
        <mxCell id="g2H8JcdMtzYCanS4Ir8u-44" value="" style="ellipse;whiteSpace=wrap;html=1;aspect=fixed;fillColor=light-dark(#000000,var(--ge-dark-color, #121212));" vertex="1" parent="1">
          <mxGeometry x="757" y="470" width="20" height="20" as="geometry" />
        </mxCell>
      </root>
    </mxGraphModel>
  </diagram>
</mxfile>
